<mxfile host="Electron" modified="2023-12-23T13:32:45.225Z" agent="Mozilla/5.0 (Windows NT 10.0; Win64; x64) AppleWebKit/537.36 (KHTML, like Gecko) draw.io/22.1.2 Chrome/114.0.5735.289 Electron/25.9.4 Safari/537.36" etag="N7oOawrCqnuS4Kt_gHmQ" version="22.1.2" type="device">
  <diagram id="C5RBs43oDa-KdzZeNtuy" name="Page-1">
    <mxGraphModel dx="1953" dy="936" grid="1" gridSize="10" guides="1" tooltips="1" connect="1" arrows="1" fold="1" page="1" pageScale="1" pageWidth="1169" pageHeight="827" math="0" shadow="0">
      <root>
        <mxCell id="WIyWlLk6GJQsqaUBKTNV-0" />
        <mxCell id="WIyWlLk6GJQsqaUBKTNV-1" parent="WIyWlLk6GJQsqaUBKTNV-0" />
        <mxCell id="tF_rKbHP3MmU82TqVk5q-1" value="users" style="rounded=0;whiteSpace=wrap;html=1;" vertex="1" parent="WIyWlLk6GJQsqaUBKTNV-1">
          <mxGeometry x="-940" y="890" width="110" height="30" as="geometry" />
        </mxCell>
        <mxCell id="tF_rKbHP3MmU82TqVk5q-2" value="user_id" style="ellipse;whiteSpace=wrap;html=1;" vertex="1" parent="WIyWlLk6GJQsqaUBKTNV-1">
          <mxGeometry x="-920" y="580" width="100" height="50" as="geometry" />
        </mxCell>
        <mxCell id="tF_rKbHP3MmU82TqVk5q-3" value="UserName" style="ellipse;whiteSpace=wrap;html=1;" vertex="1" parent="WIyWlLk6GJQsqaUBKTNV-1">
          <mxGeometry x="-1140" y="810" width="100" height="50" as="geometry" />
        </mxCell>
        <mxCell id="tF_rKbHP3MmU82TqVk5q-4" value="FullName" style="ellipse;whiteSpace=wrap;html=1;" vertex="1" parent="WIyWlLk6GJQsqaUBKTNV-1">
          <mxGeometry x="-793.33" y="600" width="100" height="50" as="geometry" />
        </mxCell>
        <mxCell id="tF_rKbHP3MmU82TqVk5q-5" value="Password" style="ellipse;whiteSpace=wrap;html=1;" vertex="1" parent="WIyWlLk6GJQsqaUBKTNV-1">
          <mxGeometry x="-1110" y="890" width="100" height="50" as="geometry" />
        </mxCell>
        <mxCell id="tF_rKbHP3MmU82TqVk5q-6" value="create_time" style="ellipse;whiteSpace=wrap;html=1;" vertex="1" parent="WIyWlLk6GJQsqaUBKTNV-1">
          <mxGeometry x="-1100" y="730" width="100" height="50" as="geometry" />
        </mxCell>
        <mxCell id="tF_rKbHP3MmU82TqVk5q-7" value="address" style="ellipse;whiteSpace=wrap;html=1;" vertex="1" parent="WIyWlLk6GJQsqaUBKTNV-1">
          <mxGeometry x="-1030" y="950" width="100" height="50" as="geometry" />
        </mxCell>
        <mxCell id="tF_rKbHP3MmU82TqVk5q-8" value="" style="endArrow=none;html=1;rounded=0;entryX=0.133;entryY=0.989;entryDx=0;entryDy=0;exitX=0.767;exitY=0.06;exitDx=0;exitDy=0;exitPerimeter=0;entryPerimeter=0;" edge="1" parent="WIyWlLk6GJQsqaUBKTNV-1" source="tF_rKbHP3MmU82TqVk5q-7" target="tF_rKbHP3MmU82TqVk5q-1">
          <mxGeometry width="50" height="50" relative="1" as="geometry">
            <mxPoint x="-1000" y="970" as="sourcePoint" />
            <mxPoint x="-950" y="920" as="targetPoint" />
          </mxGeometry>
        </mxCell>
        <mxCell id="tF_rKbHP3MmU82TqVk5q-9" value="" style="endArrow=none;html=1;rounded=0;exitX=1;exitY=0.5;exitDx=0;exitDy=0;entryX=0;entryY=0.5;entryDx=0;entryDy=0;" edge="1" parent="WIyWlLk6GJQsqaUBKTNV-1" source="tF_rKbHP3MmU82TqVk5q-5" target="tF_rKbHP3MmU82TqVk5q-1">
          <mxGeometry width="50" height="50" relative="1" as="geometry">
            <mxPoint x="-1000" y="970" as="sourcePoint" />
            <mxPoint x="-950" y="920" as="targetPoint" />
          </mxGeometry>
        </mxCell>
        <mxCell id="tF_rKbHP3MmU82TqVk5q-10" value="" style="endArrow=none;html=1;rounded=0;exitX=0.5;exitY=1;exitDx=0;exitDy=0;" edge="1" parent="WIyWlLk6GJQsqaUBKTNV-1" source="tF_rKbHP3MmU82TqVk5q-6">
          <mxGeometry width="50" height="50" relative="1" as="geometry">
            <mxPoint x="-943" y="963" as="sourcePoint" />
            <mxPoint x="-930" y="890" as="targetPoint" />
          </mxGeometry>
        </mxCell>
        <mxCell id="tF_rKbHP3MmU82TqVk5q-11" value="" style="endArrow=none;html=1;rounded=0;entryX=0.842;entryY=-0.055;entryDx=0;entryDy=0;exitX=0.341;exitY=0.954;exitDx=0;exitDy=0;exitPerimeter=0;entryPerimeter=0;" edge="1" parent="WIyWlLk6GJQsqaUBKTNV-1" source="tF_rKbHP3MmU82TqVk5q-4" target="tF_rKbHP3MmU82TqVk5q-1">
          <mxGeometry width="50" height="50" relative="1" as="geometry">
            <mxPoint x="-933" y="973" as="sourcePoint" />
            <mxPoint x="-920" y="940" as="targetPoint" />
          </mxGeometry>
        </mxCell>
        <mxCell id="tF_rKbHP3MmU82TqVk5q-12" value="" style="endArrow=none;html=1;rounded=0;exitX=0.818;exitY=0.877;exitDx=0;exitDy=0;exitPerimeter=0;entryX=0;entryY=0;entryDx=0;entryDy=0;" edge="1" parent="WIyWlLk6GJQsqaUBKTNV-1" source="tF_rKbHP3MmU82TqVk5q-3" target="tF_rKbHP3MmU82TqVk5q-1">
          <mxGeometry width="50" height="50" relative="1" as="geometry">
            <mxPoint x="-923" y="983" as="sourcePoint" />
            <mxPoint x="-897" y="896" as="targetPoint" />
          </mxGeometry>
        </mxCell>
        <mxCell id="tF_rKbHP3MmU82TqVk5q-13" value="" style="endArrow=none;html=1;rounded=0;exitX=0.5;exitY=1;exitDx=0;exitDy=0;entryX=0.563;entryY=-0.016;entryDx=0;entryDy=0;entryPerimeter=0;" edge="1" parent="WIyWlLk6GJQsqaUBKTNV-1" source="tF_rKbHP3MmU82TqVk5q-2" target="tF_rKbHP3MmU82TqVk5q-1">
          <mxGeometry width="50" height="50" relative="1" as="geometry">
            <mxPoint x="-890" y="760" as="sourcePoint" />
            <mxPoint x="-860" y="890" as="targetPoint" />
          </mxGeometry>
        </mxCell>
        <mxCell id="tF_rKbHP3MmU82TqVk5q-14" value="buy" style="html=1;whiteSpace=wrap;aspect=fixed;shape=isoRectangle;" vertex="1" parent="WIyWlLk6GJQsqaUBKTNV-1">
          <mxGeometry x="-760" y="810" width="116.67" height="70" as="geometry" />
        </mxCell>
        <mxCell id="tF_rKbHP3MmU82TqVk5q-16" value="see" style="html=1;whiteSpace=wrap;aspect=fixed;shape=isoRectangle;" vertex="1" parent="WIyWlLk6GJQsqaUBKTNV-1">
          <mxGeometry x="-760" y="900" width="116.67" height="70" as="geometry" />
        </mxCell>
        <mxCell id="tF_rKbHP3MmU82TqVk5q-19" value="write" style="html=1;whiteSpace=wrap;aspect=fixed;shape=isoRectangle;" vertex="1" parent="WIyWlLk6GJQsqaUBKTNV-1">
          <mxGeometry x="-1010" y="650" width="116.67" height="70" as="geometry" />
        </mxCell>
        <mxCell id="tF_rKbHP3MmU82TqVk5q-25" value="products" style="rounded=0;whiteSpace=wrap;html=1;" vertex="1" parent="WIyWlLk6GJQsqaUBKTNV-1">
          <mxGeometry x="-570" y="890" width="110" height="30" as="geometry" />
        </mxCell>
        <mxCell id="tF_rKbHP3MmU82TqVk5q-28" value="id_product" style="ellipse;whiteSpace=wrap;html=1;" vertex="1" parent="WIyWlLk6GJQsqaUBKTNV-1">
          <mxGeometry x="-630" y="720" width="100" height="50" as="geometry" />
        </mxCell>
        <mxCell id="tF_rKbHP3MmU82TqVk5q-29" value="product" style="ellipse;whiteSpace=wrap;html=1;" vertex="1" parent="WIyWlLk6GJQsqaUBKTNV-1">
          <mxGeometry x="-520" y="720" width="100" height="50" as="geometry" />
        </mxCell>
        <mxCell id="tF_rKbHP3MmU82TqVk5q-30" value="id category" style="ellipse;whiteSpace=wrap;html=1;" vertex="1" parent="WIyWlLk6GJQsqaUBKTNV-1">
          <mxGeometry x="-490" y="1020" width="100" height="50" as="geometry" />
        </mxCell>
        <mxCell id="tF_rKbHP3MmU82TqVk5q-31" value="category" style="ellipse;whiteSpace=wrap;html=1;" vertex="1" parent="WIyWlLk6GJQsqaUBKTNV-1">
          <mxGeometry x="-360" y="1009" width="100" height="50" as="geometry" />
        </mxCell>
        <mxCell id="tF_rKbHP3MmU82TqVk5q-32" value="remain" style="ellipse;whiteSpace=wrap;html=1;" vertex="1" parent="WIyWlLk6GJQsqaUBKTNV-1">
          <mxGeometry x="-250" y="820" width="100" height="50" as="geometry" />
        </mxCell>
        <mxCell id="tF_rKbHP3MmU82TqVk5q-33" value="price" style="ellipse;whiteSpace=wrap;html=1;" vertex="1" parent="WIyWlLk6GJQsqaUBKTNV-1">
          <mxGeometry x="-410" y="720" width="100" height="50" as="geometry" />
        </mxCell>
        <mxCell id="tF_rKbHP3MmU82TqVk5q-34" value="unit" style="ellipse;whiteSpace=wrap;html=1;" vertex="1" parent="WIyWlLk6GJQsqaUBKTNV-1">
          <mxGeometry x="-320" y="940" width="100" height="50" as="geometry" />
        </mxCell>
        <mxCell id="tF_rKbHP3MmU82TqVk5q-35" value="image" style="ellipse;whiteSpace=wrap;html=1;" vertex="1" parent="WIyWlLk6GJQsqaUBKTNV-1">
          <mxGeometry x="-300" y="750" width="100" height="50" as="geometry" />
        </mxCell>
        <mxCell id="tF_rKbHP3MmU82TqVk5q-36" value="context" style="ellipse;whiteSpace=wrap;html=1;" vertex="1" parent="WIyWlLk6GJQsqaUBKTNV-1">
          <mxGeometry x="-249.99999999999994" y="880" width="100" height="50" as="geometry" />
        </mxCell>
        <mxCell id="tF_rKbHP3MmU82TqVk5q-37" value="" style="endArrow=none;html=1;rounded=0;entryX=0.583;entryY=0.98;entryDx=0;entryDy=0;entryPerimeter=0;exitX=0.25;exitY=0;exitDx=0;exitDy=0;" edge="1" parent="WIyWlLk6GJQsqaUBKTNV-1" source="tF_rKbHP3MmU82TqVk5q-25" target="tF_rKbHP3MmU82TqVk5q-28">
          <mxGeometry width="50" height="50" relative="1" as="geometry">
            <mxPoint x="-530" y="910" as="sourcePoint" />
            <mxPoint x="-480" y="860" as="targetPoint" />
          </mxGeometry>
        </mxCell>
        <mxCell id="tF_rKbHP3MmU82TqVk5q-39" value="" style="endArrow=none;html=1;rounded=0;entryX=0.377;entryY=0.967;entryDx=0;entryDy=0;entryPerimeter=0;exitX=0.597;exitY=-0.056;exitDx=0;exitDy=0;exitPerimeter=0;" edge="1" parent="WIyWlLk6GJQsqaUBKTNV-1" source="tF_rKbHP3MmU82TqVk5q-25" target="tF_rKbHP3MmU82TqVk5q-29">
          <mxGeometry width="50" height="50" relative="1" as="geometry">
            <mxPoint x="-480" y="890" as="sourcePoint" />
            <mxPoint x="-470" y="800" as="targetPoint" />
          </mxGeometry>
        </mxCell>
        <mxCell id="tF_rKbHP3MmU82TqVk5q-41" value="" style="endArrow=none;html=1;rounded=0;exitX=0.694;exitY=1.078;exitDx=0;exitDy=0;exitPerimeter=0;" edge="1" parent="WIyWlLk6GJQsqaUBKTNV-1" source="tF_rKbHP3MmU82TqVk5q-25">
          <mxGeometry width="50" height="50" relative="1" as="geometry">
            <mxPoint x="-460" y="890" as="sourcePoint" />
            <mxPoint x="-460" y="1020" as="targetPoint" />
          </mxGeometry>
        </mxCell>
        <mxCell id="tF_rKbHP3MmU82TqVk5q-42" value="" style="endArrow=none;html=1;rounded=0;exitX=0.75;exitY=1;exitDx=0;exitDy=0;" edge="1" parent="WIyWlLk6GJQsqaUBKTNV-1" source="tF_rKbHP3MmU82TqVk5q-25">
          <mxGeometry width="50" height="50" relative="1" as="geometry">
            <mxPoint x="-470" y="930" as="sourcePoint" />
            <mxPoint x="-350" y="1020" as="targetPoint" />
          </mxGeometry>
        </mxCell>
        <mxCell id="tF_rKbHP3MmU82TqVk5q-43" value="" style="endArrow=none;html=1;rounded=0;entryX=0;entryY=0.5;entryDx=0;entryDy=0;" edge="1" parent="WIyWlLk6GJQsqaUBKTNV-1" target="tF_rKbHP3MmU82TqVk5q-32">
          <mxGeometry width="50" height="50" relative="1" as="geometry">
            <mxPoint x="-460" y="910" as="sourcePoint" />
            <mxPoint x="-210" y="910" as="targetPoint" />
          </mxGeometry>
        </mxCell>
        <mxCell id="tF_rKbHP3MmU82TqVk5q-44" value="" style="endArrow=none;html=1;rounded=0;entryX=0.5;entryY=1;entryDx=0;entryDy=0;exitX=0.75;exitY=0;exitDx=0;exitDy=0;" edge="1" parent="WIyWlLk6GJQsqaUBKTNV-1" source="tF_rKbHP3MmU82TqVk5q-25" target="tF_rKbHP3MmU82TqVk5q-33">
          <mxGeometry width="50" height="50" relative="1" as="geometry">
            <mxPoint x="-470" y="920" as="sourcePoint" />
            <mxPoint x="-320" y="970" as="targetPoint" />
          </mxGeometry>
        </mxCell>
        <mxCell id="tF_rKbHP3MmU82TqVk5q-45" value="" style="endArrow=none;html=1;rounded=0;exitX=0;exitY=0;exitDx=0;exitDy=0;" edge="1" parent="WIyWlLk6GJQsqaUBKTNV-1" source="tF_rKbHP3MmU82TqVk5q-34">
          <mxGeometry width="50" height="50" relative="1" as="geometry">
            <mxPoint x="-400" y="1010" as="sourcePoint" />
            <mxPoint x="-480" y="920" as="targetPoint" />
          </mxGeometry>
        </mxCell>
        <mxCell id="tF_rKbHP3MmU82TqVk5q-46" value="" style="endArrow=none;html=1;rounded=0;exitX=0;exitY=1;exitDx=0;exitDy=0;" edge="1" parent="WIyWlLk6GJQsqaUBKTNV-1" source="tF_rKbHP3MmU82TqVk5q-35">
          <mxGeometry width="50" height="50" relative="1" as="geometry">
            <mxPoint x="-510" y="1000" as="sourcePoint" />
            <mxPoint x="-460" y="890" as="targetPoint" />
          </mxGeometry>
        </mxCell>
        <mxCell id="tF_rKbHP3MmU82TqVk5q-47" value="" style="endArrow=none;html=1;rounded=0;exitX=0;exitY=0.5;exitDx=0;exitDy=0;" edge="1" parent="WIyWlLk6GJQsqaUBKTNV-1" source="tF_rKbHP3MmU82TqVk5q-36">
          <mxGeometry width="50" height="50" relative="1" as="geometry">
            <mxPoint x="-630" y="1010" as="sourcePoint" />
            <mxPoint x="-460" y="920" as="targetPoint" />
          </mxGeometry>
        </mxCell>
        <mxCell id="tF_rKbHP3MmU82TqVk5q-48" value="" style="shape=link;html=1;rounded=0;entryX=0.031;entryY=0.529;entryDx=0;entryDy=0;entryPerimeter=0;exitX=1;exitY=0;exitDx=0;exitDy=0;" edge="1" parent="WIyWlLk6GJQsqaUBKTNV-1" source="tF_rKbHP3MmU82TqVk5q-1" target="tF_rKbHP3MmU82TqVk5q-14">
          <mxGeometry width="100" relative="1" as="geometry">
            <mxPoint x="-830" y="870" as="sourcePoint" />
            <mxPoint x="-730" y="870" as="targetPoint" />
          </mxGeometry>
        </mxCell>
        <mxCell id="tF_rKbHP3MmU82TqVk5q-51" value="" style="shape=link;html=1;rounded=0;exitX=1;exitY=0.75;exitDx=0;exitDy=0;" edge="1" parent="WIyWlLk6GJQsqaUBKTNV-1" source="tF_rKbHP3MmU82TqVk5q-1">
          <mxGeometry width="100" relative="1" as="geometry">
            <mxPoint x="-810" y="930" as="sourcePoint" />
            <mxPoint x="-750" y="930" as="targetPoint" />
          </mxGeometry>
        </mxCell>
        <mxCell id="tF_rKbHP3MmU82TqVk5q-52" value="" style="shape=link;html=1;rounded=0;entryX=0.512;entryY=0.986;entryDx=0;entryDy=0;entryPerimeter=0;exitX=0.25;exitY=0;exitDx=0;exitDy=0;" edge="1" parent="WIyWlLk6GJQsqaUBKTNV-1" source="tF_rKbHP3MmU82TqVk5q-1" target="tF_rKbHP3MmU82TqVk5q-19">
          <mxGeometry width="100" relative="1" as="geometry">
            <mxPoint x="-870" y="890" as="sourcePoint" />
            <mxPoint x="-870" y="670" as="targetPoint" />
          </mxGeometry>
        </mxCell>
        <mxCell id="tF_rKbHP3MmU82TqVk5q-53" value="" style="shape=link;html=1;rounded=0;entryX=0;entryY=0;entryDx=0;entryDy=0;exitX=0.957;exitY=0.5;exitDx=0;exitDy=0;exitPerimeter=0;" edge="1" parent="WIyWlLk6GJQsqaUBKTNV-1" source="tF_rKbHP3MmU82TqVk5q-14" target="tF_rKbHP3MmU82TqVk5q-25">
          <mxGeometry width="100" relative="1" as="geometry">
            <mxPoint x="-690" y="910" as="sourcePoint" />
            <mxPoint x="-590" y="910" as="targetPoint" />
          </mxGeometry>
        </mxCell>
        <mxCell id="tF_rKbHP3MmU82TqVk5q-54" value="" style="shape=link;html=1;rounded=0;entryX=0;entryY=1;entryDx=0;entryDy=0;" edge="1" parent="WIyWlLk6GJQsqaUBKTNV-1" target="tF_rKbHP3MmU82TqVk5q-25">
          <mxGeometry width="100" relative="1" as="geometry">
            <mxPoint x="-650" y="930" as="sourcePoint" />
            <mxPoint x="-590" y="960" as="targetPoint" />
          </mxGeometry>
        </mxCell>
        <mxCell id="tF_rKbHP3MmU82TqVk5q-55" value="" style="shape=link;html=1;rounded=0;entryX=0.25;entryY=1;entryDx=0;entryDy=0;exitX=0.64;exitY=0.15;exitDx=0;exitDy=0;exitPerimeter=0;" edge="1" parent="WIyWlLk6GJQsqaUBKTNV-1" source="tF_rKbHP3MmU82TqVk5q-56" target="tF_rKbHP3MmU82TqVk5q-25">
          <mxGeometry width="100" relative="1" as="geometry">
            <mxPoint x="-530" y="1070" as="sourcePoint" />
            <mxPoint x="-410" y="1040" as="targetPoint" />
          </mxGeometry>
        </mxCell>
        <mxCell id="tF_rKbHP3MmU82TqVk5q-56" value="classify" style="html=1;whiteSpace=wrap;aspect=fixed;shape=isoRectangle;" vertex="1" parent="WIyWlLk6GJQsqaUBKTNV-1">
          <mxGeometry x="-660" y="1000" width="116.67" height="70" as="geometry" />
        </mxCell>
        <mxCell id="tF_rKbHP3MmU82TqVk5q-58" value="category" style="rounded=0;whiteSpace=wrap;html=1;" vertex="1" parent="WIyWlLk6GJQsqaUBKTNV-1">
          <mxGeometry x="-420" y="1120" width="110" height="30" as="geometry" />
        </mxCell>
        <mxCell id="tF_rKbHP3MmU82TqVk5q-60" value="" style="shape=link;html=1;rounded=0;entryX=0;entryY=0.5;entryDx=0;entryDy=0;exitX=0.729;exitY=0.771;exitDx=0;exitDy=0;exitPerimeter=0;" edge="1" parent="WIyWlLk6GJQsqaUBKTNV-1" source="tF_rKbHP3MmU82TqVk5q-56" target="tF_rKbHP3MmU82TqVk5q-58">
          <mxGeometry width="100" relative="1" as="geometry">
            <mxPoint x="-400" y="1140" as="sourcePoint" />
            <mxPoint x="-300" y="1140" as="targetPoint" />
          </mxGeometry>
        </mxCell>
        <mxCell id="tF_rKbHP3MmU82TqVk5q-61" value="" style="endArrow=none;html=1;rounded=0;exitX=0.75;exitY=0;exitDx=0;exitDy=0;entryX=0.5;entryY=1;entryDx=0;entryDy=0;" edge="1" parent="WIyWlLk6GJQsqaUBKTNV-1" source="tF_rKbHP3MmU82TqVk5q-58" target="tF_rKbHP3MmU82TqVk5q-31">
          <mxGeometry width="50" height="50" relative="1" as="geometry">
            <mxPoint x="-390" y="1140" as="sourcePoint" />
            <mxPoint x="-330" y="1060" as="targetPoint" />
          </mxGeometry>
        </mxCell>
        <mxCell id="tF_rKbHP3MmU82TqVk5q-63" value="" style="endArrow=none;html=1;rounded=0;entryX=0.637;entryY=0.927;entryDx=0;entryDy=0;entryPerimeter=0;exitX=0.5;exitY=0;exitDx=0;exitDy=0;" edge="1" parent="WIyWlLk6GJQsqaUBKTNV-1" source="tF_rKbHP3MmU82TqVk5q-58" target="tF_rKbHP3MmU82TqVk5q-30">
          <mxGeometry width="50" height="50" relative="1" as="geometry">
            <mxPoint x="-390" y="1160" as="sourcePoint" />
            <mxPoint x="-380" y="1080" as="targetPoint" />
          </mxGeometry>
        </mxCell>
        <mxCell id="tF_rKbHP3MmU82TqVk5q-64" value="feedback" style="rounded=0;whiteSpace=wrap;html=1;" vertex="1" parent="WIyWlLk6GJQsqaUBKTNV-1">
          <mxGeometry x="-960" y="420" width="110" height="30" as="geometry" />
        </mxCell>
        <mxCell id="tF_rKbHP3MmU82TqVk5q-65" value="" style="endArrow=none;html=1;rounded=0;exitX=0.5;exitY=1;exitDx=0;exitDy=0;" edge="1" parent="WIyWlLk6GJQsqaUBKTNV-1" source="tF_rKbHP3MmU82TqVk5q-64" target="tF_rKbHP3MmU82TqVk5q-2">
          <mxGeometry width="50" height="50" relative="1" as="geometry">
            <mxPoint x="-1030" y="1210" as="sourcePoint" />
            <mxPoint x="-940" y="1140" as="targetPoint" />
          </mxGeometry>
        </mxCell>
        <mxCell id="tF_rKbHP3MmU82TqVk5q-66" value="id_feedback" style="ellipse;whiteSpace=wrap;html=1;" vertex="1" parent="WIyWlLk6GJQsqaUBKTNV-1">
          <mxGeometry x="-1060" y="580" width="100" height="50" as="geometry" />
        </mxCell>
        <mxCell id="tF_rKbHP3MmU82TqVk5q-67" value="feedback" style="ellipse;whiteSpace=wrap;html=1;" vertex="1" parent="WIyWlLk6GJQsqaUBKTNV-1">
          <mxGeometry x="-1090" y="480" width="100" height="50" as="geometry" />
        </mxCell>
        <mxCell id="tF_rKbHP3MmU82TqVk5q-68" value="" style="endArrow=none;html=1;rounded=0;entryX=0;entryY=1;entryDx=0;entryDy=0;exitX=0.644;exitY=0;exitDx=0;exitDy=0;exitPerimeter=0;" edge="1" parent="WIyWlLk6GJQsqaUBKTNV-1" source="tF_rKbHP3MmU82TqVk5q-67" target="tF_rKbHP3MmU82TqVk5q-64">
          <mxGeometry width="50" height="50" relative="1" as="geometry">
            <mxPoint x="-980" y="1230" as="sourcePoint" />
            <mxPoint x="-930" y="1180" as="targetPoint" />
          </mxGeometry>
        </mxCell>
        <mxCell id="tF_rKbHP3MmU82TqVk5q-69" value="" style="endArrow=none;html=1;rounded=0;exitX=0.138;exitY=0.967;exitDx=0;exitDy=0;exitPerimeter=0;entryX=0.691;entryY=0.048;entryDx=0;entryDy=0;entryPerimeter=0;" edge="1" parent="WIyWlLk6GJQsqaUBKTNV-1" source="tF_rKbHP3MmU82TqVk5q-64" target="tF_rKbHP3MmU82TqVk5q-66">
          <mxGeometry width="50" height="50" relative="1" as="geometry">
            <mxPoint x="-670" y="480" as="sourcePoint" />
            <mxPoint x="-930" y="570" as="targetPoint" />
          </mxGeometry>
        </mxCell>
        <mxCell id="tF_rKbHP3MmU82TqVk5q-70" value="" style="shape=link;html=1;rounded=0;entryX=0.506;entryY=0.062;entryDx=0;entryDy=0;entryPerimeter=0;exitX=0.363;exitY=0.935;exitDx=0;exitDy=0;exitPerimeter=0;" edge="1" parent="WIyWlLk6GJQsqaUBKTNV-1" source="tF_rKbHP3MmU82TqVk5q-64" target="tF_rKbHP3MmU82TqVk5q-19">
          <mxGeometry width="100" relative="1" as="geometry">
            <mxPoint x="-850" y="470" as="sourcePoint" />
            <mxPoint x="-813.33" y="1010" as="targetPoint" />
          </mxGeometry>
        </mxCell>
        <mxCell id="tF_rKbHP3MmU82TqVk5q-76" value="order" style="html=1;whiteSpace=wrap;aspect=fixed;shape=isoRectangle;" vertex="1" parent="WIyWlLk6GJQsqaUBKTNV-1">
          <mxGeometry x="-760" y="710" width="116.67" height="70" as="geometry" />
        </mxCell>
        <mxCell id="tF_rKbHP3MmU82TqVk5q-77" value="" style="shape=link;html=1;rounded=0;entryX=0.276;entryY=0.777;entryDx=0;entryDy=0;entryPerimeter=0;exitX=0.929;exitY=0.044;exitDx=0;exitDy=0;exitPerimeter=0;" edge="1" parent="WIyWlLk6GJQsqaUBKTNV-1" source="tF_rKbHP3MmU82TqVk5q-1" target="tF_rKbHP3MmU82TqVk5q-76">
          <mxGeometry width="100" relative="1" as="geometry">
            <mxPoint x="-830" y="820" as="sourcePoint" />
            <mxPoint x="-730" y="820" as="targetPoint" />
          </mxGeometry>
        </mxCell>
        <mxCell id="tF_rKbHP3MmU82TqVk5q-78" value="" style="shape=link;html=1;rounded=0;exitX=0.655;exitY=0.16;exitDx=0;exitDy=0;exitPerimeter=0;entryX=0;entryY=1;entryDx=0;entryDy=0;" edge="1" parent="WIyWlLk6GJQsqaUBKTNV-1" source="tF_rKbHP3MmU82TqVk5q-76" target="tF_rKbHP3MmU82TqVk5q-79">
          <mxGeometry width="100" relative="1" as="geometry">
            <mxPoint x="-710" y="690" as="sourcePoint" />
            <mxPoint x="-600" y="600" as="targetPoint" />
          </mxGeometry>
        </mxCell>
        <mxCell id="tF_rKbHP3MmU82TqVk5q-79" value="order" style="rounded=0;whiteSpace=wrap;html=1;" vertex="1" parent="WIyWlLk6GJQsqaUBKTNV-1">
          <mxGeometry x="-530" y="530" width="110" height="30" as="geometry" />
        </mxCell>
        <mxCell id="tF_rKbHP3MmU82TqVk5q-80" value="" style="shape=link;html=1;rounded=0;entryX=0;entryY=0;entryDx=0;entryDy=0;exitX=0.928;exitY=0.513;exitDx=0;exitDy=0;exitPerimeter=0;" edge="1" parent="WIyWlLk6GJQsqaUBKTNV-1" source="tF_rKbHP3MmU82TqVk5q-82" target="tF_rKbHP3MmU82TqVk5q-79">
          <mxGeometry width="100" relative="1" as="geometry">
            <mxPoint x="-620" y="520" as="sourcePoint" />
            <mxPoint x="-550" y="610" as="targetPoint" />
          </mxGeometry>
        </mxCell>
        <mxCell id="tF_rKbHP3MmU82TqVk5q-82" value="have" style="html=1;whiteSpace=wrap;aspect=fixed;shape=isoRectangle;" vertex="1" parent="WIyWlLk6GJQsqaUBKTNV-1">
          <mxGeometry x="-700" y="470" width="116.67" height="70" as="geometry" />
        </mxCell>
        <mxCell id="tF_rKbHP3MmU82TqVk5q-83" value="order_details" style="rounded=0;whiteSpace=wrap;html=1;" vertex="1" parent="WIyWlLk6GJQsqaUBKTNV-1">
          <mxGeometry x="-810" y="414" width="110" height="30" as="geometry" />
        </mxCell>
        <mxCell id="tF_rKbHP3MmU82TqVk5q-84" value="" style="endArrow=none;html=1;rounded=0;entryX=0.107;entryY=1.029;entryDx=0;entryDy=0;entryPerimeter=0;exitX=0.57;exitY=0.025;exitDx=0;exitDy=0;exitPerimeter=0;" edge="1" parent="WIyWlLk6GJQsqaUBKTNV-1" source="tF_rKbHP3MmU82TqVk5q-2" target="tF_rKbHP3MmU82TqVk5q-83">
          <mxGeometry width="50" height="50" relative="1" as="geometry">
            <mxPoint x="-760" y="500" as="sourcePoint" />
            <mxPoint x="-710" y="450" as="targetPoint" />
          </mxGeometry>
        </mxCell>
        <mxCell id="tF_rKbHP3MmU82TqVk5q-85" value="" style="shape=link;html=1;rounded=0;entryX=0.437;entryY=0.09;entryDx=0;entryDy=0;entryPerimeter=0;" edge="1" parent="WIyWlLk6GJQsqaUBKTNV-1" source="tF_rKbHP3MmU82TqVk5q-83" target="tF_rKbHP3MmU82TqVk5q-82">
          <mxGeometry width="100" relative="1" as="geometry">
            <mxPoint x="-690" y="470" as="sourcePoint" />
            <mxPoint x="-590" y="470" as="targetPoint" />
          </mxGeometry>
        </mxCell>
        <mxCell id="tF_rKbHP3MmU82TqVk5q-87" value="" style="endArrow=none;html=1;rounded=0;exitX=0.599;exitY=0.07;exitDx=0;exitDy=0;exitPerimeter=0;entryX=0.25;entryY=1;entryDx=0;entryDy=0;" edge="1" parent="WIyWlLk6GJQsqaUBKTNV-1" source="tF_rKbHP3MmU82TqVk5q-28" target="tF_rKbHP3MmU82TqVk5q-79">
          <mxGeometry width="50" height="50" relative="1" as="geometry">
            <mxPoint x="-570" y="650" as="sourcePoint" />
            <mxPoint x="-520" y="600" as="targetPoint" />
          </mxGeometry>
        </mxCell>
        <mxCell id="tF_rKbHP3MmU82TqVk5q-89" value="id_bill" style="ellipse;whiteSpace=wrap;html=1;" vertex="1" parent="WIyWlLk6GJQsqaUBKTNV-1">
          <mxGeometry x="-590" y="370" width="100" height="50" as="geometry" />
        </mxCell>
        <mxCell id="tF_rKbHP3MmU82TqVk5q-90" value="" style="endArrow=none;html=1;rounded=0;entryX=0.5;entryY=1;entryDx=0;entryDy=0;exitX=0.5;exitY=0;exitDx=0;exitDy=0;" edge="1" parent="WIyWlLk6GJQsqaUBKTNV-1" source="tF_rKbHP3MmU82TqVk5q-79" target="tF_rKbHP3MmU82TqVk5q-89">
          <mxGeometry width="50" height="50" relative="1" as="geometry">
            <mxPoint x="-600" y="500" as="sourcePoint" />
            <mxPoint x="-550" y="450" as="targetPoint" />
          </mxGeometry>
        </mxCell>
        <mxCell id="tF_rKbHP3MmU82TqVk5q-91" value="" style="endArrow=none;html=1;rounded=0;entryX=0.031;entryY=0.698;entryDx=0;entryDy=0;entryPerimeter=0;exitX=1;exitY=0.5;exitDx=0;exitDy=0;" edge="1" parent="WIyWlLk6GJQsqaUBKTNV-1" source="tF_rKbHP3MmU82TqVk5q-83" target="tF_rKbHP3MmU82TqVk5q-89">
          <mxGeometry width="50" height="50" relative="1" as="geometry">
            <mxPoint x="-690" y="480" as="sourcePoint" />
            <mxPoint x="-640" y="430" as="targetPoint" />
          </mxGeometry>
        </mxCell>
        <mxCell id="tF_rKbHP3MmU82TqVk5q-92" value="" style="endArrow=none;html=1;rounded=0;entryX=0.5;entryY=1;entryDx=0;entryDy=0;exitX=0.436;exitY=-0.053;exitDx=0;exitDy=0;exitPerimeter=0;" edge="1" parent="WIyWlLk6GJQsqaUBKTNV-1" source="tF_rKbHP3MmU82TqVk5q-29" target="tF_rKbHP3MmU82TqVk5q-79">
          <mxGeometry width="50" height="50" relative="1" as="geometry">
            <mxPoint x="-600" y="670" as="sourcePoint" />
            <mxPoint x="-550" y="620" as="targetPoint" />
          </mxGeometry>
        </mxCell>
        <mxCell id="tF_rKbHP3MmU82TqVk5q-93" value="" style="endArrow=none;html=1;rounded=0;entryX=0.368;entryY=-0.007;entryDx=0;entryDy=0;entryPerimeter=0;exitX=1;exitY=0.75;exitDx=0;exitDy=0;" edge="1" parent="WIyWlLk6GJQsqaUBKTNV-1" source="tF_rKbHP3MmU82TqVk5q-79" target="tF_rKbHP3MmU82TqVk5q-33">
          <mxGeometry width="50" height="50" relative="1" as="geometry">
            <mxPoint x="-450" y="750" as="sourcePoint" />
            <mxPoint x="-400" y="700" as="targetPoint" />
          </mxGeometry>
        </mxCell>
        <mxCell id="tF_rKbHP3MmU82TqVk5q-94" value="" style="endArrow=none;html=1;rounded=0;entryX=0.378;entryY=0.98;entryDx=0;entryDy=0;entryPerimeter=0;" edge="1" parent="WIyWlLk6GJQsqaUBKTNV-1" source="tF_rKbHP3MmU82TqVk5q-4" target="tF_rKbHP3MmU82TqVk5q-83">
          <mxGeometry width="50" height="50" relative="1" as="geometry">
            <mxPoint x="-740" y="540" as="sourcePoint" />
            <mxPoint x="-690" y="490" as="targetPoint" />
          </mxGeometry>
        </mxCell>
        <mxCell id="tF_rKbHP3MmU82TqVk5q-95" value="Date" style="ellipse;whiteSpace=wrap;html=1;" vertex="1" parent="WIyWlLk6GJQsqaUBKTNV-1">
          <mxGeometry x="-893.33" y="330" width="100" height="50" as="geometry" />
        </mxCell>
        <mxCell id="tF_rKbHP3MmU82TqVk5q-96" value="" style="endArrow=none;html=1;rounded=0;entryX=0;entryY=0;entryDx=0;entryDy=0;exitX=0.652;exitY=0.982;exitDx=0;exitDy=0;exitPerimeter=0;" edge="1" parent="WIyWlLk6GJQsqaUBKTNV-1" source="tF_rKbHP3MmU82TqVk5q-95" target="tF_rKbHP3MmU82TqVk5q-83">
          <mxGeometry width="50" height="50" relative="1" as="geometry">
            <mxPoint x="-800" y="410" as="sourcePoint" />
            <mxPoint x="-750" y="360" as="targetPoint" />
          </mxGeometry>
        </mxCell>
        <mxCell id="tF_rKbHP3MmU82TqVk5q-97" value="Total_price" style="ellipse;whiteSpace=wrap;html=1;" vertex="1" parent="WIyWlLk6GJQsqaUBKTNV-1">
          <mxGeometry x="-760" y="310" width="100" height="50" as="geometry" />
        </mxCell>
        <mxCell id="tF_rKbHP3MmU82TqVk5q-98" value="" style="endArrow=none;html=1;rounded=0;entryX=0.337;entryY=0.974;entryDx=0;entryDy=0;entryPerimeter=0;exitX=0.606;exitY=-0.053;exitDx=0;exitDy=0;exitPerimeter=0;" edge="1" parent="WIyWlLk6GJQsqaUBKTNV-1" source="tF_rKbHP3MmU82TqVk5q-83" target="tF_rKbHP3MmU82TqVk5q-97">
          <mxGeometry width="50" height="50" relative="1" as="geometry">
            <mxPoint x="-740" y="490" as="sourcePoint" />
            <mxPoint x="-690" y="440" as="targetPoint" />
          </mxGeometry>
        </mxCell>
      </root>
    </mxGraphModel>
  </diagram>
</mxfile>
